<svg width="86" height="45" viewBox="0 0 86 45" fill="none" xmlns="http://www.w3.org/2000/svg">
<path d="M42.637 0C46.6601 0 49.921 3.22689 49.921 7.20643C49.921 9.39418 48.9359 11.3544 47.3805 12.6762L47.9091 12.8617L48.0554 12.9148L48.4412 13.0611L48.8849 13.2473C52.1514 14.6701 54.32 16.7875 55.0299 19.4099C55.7825 22.1905 54.7644 25.0522 52.3942 27.4193C51.4883 28.3226 50.0438 28.3587 49.0946 27.5274L49.0759 27.5095L49.0766 42.1875C49.0766 43.7409 47.8154 45 46.2593 45C44.7551 45 43.5264 43.8235 43.4461 42.3418L43.4419 42.1875V32.9464C43.4419 32.5025 43.0815 32.1429 42.637 32.1429C42.2242 32.1429 41.8839 32.4529 41.8374 32.8527L41.832 32.9464V42.1875C41.832 43.7409 40.5708 45 39.0147 45C37.5105 45 36.2817 43.8235 36.2015 42.3418L36.1973 42.1875L36.1971 27.5117C35.2485 28.3592 33.7914 28.3284 32.8796 27.4191C30.5095 25.0522 29.4915 22.1905 30.2441 19.4099C30.954 16.7875 33.1226 14.6701 36.3864 13.2484L36.7653 13.0883L37.0442 12.9796C37.1918 12.924 37.3714 12.8586 37.5847 12.7834L37.8935 12.6762C36.3381 11.3544 35.3529 9.39418 35.3529 7.20643C35.3529 3.22689 38.6139 0 42.637 0ZM38.68 13.2585L38.0375 13.4765C37.7809 13.5656 37.5683 13.6419 37.3974 13.7056L37.0066 13.8583L36.7074 13.9854C33.6494 15.3181 31.6595 17.2616 31.0212 19.6195C30.351 22.0956 31.2679 24.6729 33.4487 26.8507C34.078 27.4783 35.0968 27.4783 35.7258 26.851C36.3545 26.2228 36.3545 25.2057 35.7261 24.5778C34.2918 23.1468 33.7901 21.7091 34.1288 20.4586C34.37 19.5676 35.048 18.666 36.154 17.8955L36.4046 17.7289L36.4653 17.7015L36.5386 17.6832L36.5998 17.6786C36.6292 17.6786 36.6578 17.6817 36.6853 17.6877L36.7449 17.7055L36.7936 17.7281L36.8336 17.7532L36.8673 17.7801L36.8963 17.8086L36.9416 17.8682L36.9663 17.9141L36.9836 17.9589L36.9977 18.0189L37.0023 18.0755L37.0023 42.1875C37.0023 43.2971 37.9032 44.1964 39.0147 44.1964C40.0818 44.1964 40.9547 43.3676 41.0228 42.3196L41.0271 42.1875V32.9464C41.0271 32.0586 41.748 31.3393 42.637 31.3393C43.4856 31.3393 44.181 31.9947 44.2425 32.8265L44.2469 32.9464V42.1875C44.2469 43.2971 45.1478 44.1964 46.2593 44.1964C47.3264 44.1964 48.1993 43.3676 48.2674 42.3196L48.2717 42.1875V18.0804C48.2717 17.8585 48.4519 17.6786 48.6742 17.6786C48.7546 17.6786 48.8295 17.7021 48.8924 17.7427C50.1336 18.5458 50.8879 19.5082 51.1451 20.4585C51.4839 21.7091 50.9821 23.1468 49.5481 24.5775C48.9195 25.2057 48.9195 26.2228 49.5478 26.8507C50.1771 27.4783 51.196 27.4783 51.8251 26.8509C54.0061 24.6729 54.923 22.0956 54.2528 19.6195C53.6145 17.2616 51.6246 15.3181 48.564 13.9843L48.199 13.83L47.8174 13.6836L47.2364 13.4765L46.5932 13.259C45.454 13.9895 44.0956 14.4137 42.637 14.4137C41.178 14.4137 39.8193 13.9893 38.68 13.2585ZM49.0776 18.871L49.0772 23.9097C50.244 22.7065 50.618 21.591 50.368 20.6682C50.208 20.0768 49.7822 19.4521 49.0776 18.871ZM36.1966 23.9087L36.1956 18.8716C35.4915 19.4526 35.0659 20.0771 34.9059 20.6683C34.6603 21.5752 35.0173 22.6684 36.1378 23.8482L36.1966 23.9087ZM42.637 0.803571C39.0568 0.803571 36.1579 3.67227 36.1579 7.20643C36.1579 10.7413 39.0567 13.6101 42.637 13.6101C46.2172 13.6101 49.1161 10.7413 49.1161 7.20643C49.1161 3.67227 46.2171 0.803571 42.637 0.803571Z" fill="#5574F9"/>
<path d="M38.68 13.2585L38.0375 13.4765C37.7809 13.5656 37.5683 13.6419 37.3974 13.7056L37.0066 13.8583L36.7074 13.9854C33.6494 15.3181 31.6595 17.2616 31.0212 19.6195C30.351 22.0956 31.2679 24.6729 33.4487 26.8507C34.078 27.4783 35.0968 27.4783 35.7258 26.851C36.3545 26.2228 36.3545 25.2057 35.7261 24.5778C34.2918 23.1468 33.7901 21.7091 34.1288 20.4586C34.37 19.5676 35.048 18.666 36.154 17.8955L36.4046 17.7289L36.4653 17.7015L36.5386 17.6832L36.5998 17.6786C36.6292 17.6786 36.6578 17.6817 36.6853 17.6877L36.7449 17.7055L36.7936 17.7281L36.8336 17.7532L36.8673 17.7801L36.8963 17.8086L36.9416 17.8682L36.9663 17.9141L36.9836 17.9589L36.9977 18.0189L37.0023 18.0755L37.0023 42.1875C37.0023 43.2971 37.9032 44.1964 39.0147 44.1964C40.0818 44.1964 40.9547 43.3676 41.0228 42.3196L41.0271 42.1875V32.9464C41.0271 32.0586 41.748 31.3393 42.637 31.3393C43.4856 31.3393 44.181 31.9947 44.2425 32.8265L44.2469 32.9464V42.1875C44.2469 43.2971 45.1478 44.1964 46.2593 44.1964C47.3264 44.1964 48.1993 43.3676 48.2674 42.3196L48.2717 42.1875V18.0804C48.2717 17.8585 48.4519 17.6786 48.6742 17.6786C48.7546 17.6786 48.8295 17.7021 48.8924 17.7427C50.1336 18.5458 50.8879 19.5082 51.1451 20.4585C51.4839 21.7091 50.9821 23.1468 49.5481 24.5775C48.9195 25.2057 48.9195 26.2228 49.5478 26.8507C50.1771 27.4783 51.196 27.4783 51.8251 26.8509C54.0061 24.6729 54.923 22.0956 54.2528 19.6195C53.6145 17.2616 51.6246 15.3181 48.564 13.9843L48.199 13.83L47.8174 13.6836L47.2364 13.4765L46.5932 13.259C45.454 13.9895 44.0956 14.4137 42.637 14.4137C41.178 14.4137 39.8193 13.9893 38.68 13.2585Z" fill="#5574F9"/>
<path d="M42.637 0.803571C39.0568 0.803571 36.1579 3.67227 36.1579 7.20643C36.1579 10.7413 39.0567 13.6101 42.637 13.6101C46.2172 13.6101 49.1161 10.7413 49.1161 7.20643C49.1161 3.67227 46.2171 0.803571 42.637 0.803571Z" fill="#5574F9"/>
<path d="M12.637 0C16.6601 0 19.921 3.22689 19.921 7.20643C19.921 9.39418 18.9359 11.3544 17.3805 12.6762L17.9091 12.8617L18.0554 12.9148L18.4412 13.0611L18.8849 13.2473C22.1514 14.6701 24.32 16.7875 25.0299 19.4099C25.7825 22.1905 24.7644 25.0522 22.3942 27.4193C21.4883 28.3226 20.0438 28.3587 19.0946 27.5274L19.0759 27.5095L19.0766 42.1875C19.0766 43.7409 17.8154 45 16.2593 45C14.7551 45 13.5264 43.8235 13.4461 42.3418L13.4419 42.1875V32.9464C13.4419 32.5025 13.0815 32.1429 12.637 32.1429C12.2242 32.1429 11.8839 32.4529 11.8374 32.8527L11.832 32.9464V42.1875C11.832 43.7409 10.5708 45 9.01468 45C7.51046 45 6.28174 43.8235 6.2015 42.3418L6.19733 42.1875L6.19713 27.5117C5.24855 28.3592 3.79141 28.3284 2.87961 27.4191C0.509547 25.0522 -0.508546 22.1905 0.244124 19.4099C0.953966 16.7875 3.12262 14.6701 6.38642 13.2484L6.76531 13.0883L7.04419 12.9796C7.19181 12.924 7.37142 12.8586 7.58472 12.7834L7.89352 12.6762C6.33809 11.3544 5.35293 9.39418 5.35293 7.20643C5.35293 3.22689 8.61385 0 12.637 0ZM8.67998 13.2585L8.03751 13.4765C7.78086 13.5656 7.56834 13.6419 7.39738 13.7056L7.00662 13.8583L6.70736 13.9854C3.64939 15.3181 1.65947 17.2616 1.02121 19.6195C0.350979 22.0956 1.26791 24.6729 3.44871 26.8507C4.078 27.4783 5.09683 27.4783 5.72584 26.851C6.3545 26.2228 6.3545 25.2057 5.72607 24.5778C4.29184 23.1468 3.79011 21.7091 4.12884 20.4586C4.36999 19.5676 5.04801 18.666 6.15402 17.8955L6.40464 17.7289L6.46534 17.7015L6.53859 17.6832L6.59981 17.6786C6.62916 17.6786 6.65777 17.6817 6.68533 17.6877L6.74486 17.7055L6.79355 17.7281L6.83361 17.7532L6.86731 17.7801L6.89629 17.8086L6.94158 17.8682L6.96628 17.9141L6.98356 17.9589L6.99766 18.0189L7.00231 18.0755L7.00229 42.1875C7.00229 43.2971 7.90315 44.1964 9.01468 44.1964C10.0818 44.1964 10.9547 43.3676 11.0228 42.3196L11.0271 42.1875V32.9464C11.0271 32.0586 11.748 31.3393 12.637 31.3393C13.4856 31.3393 14.181 31.9947 14.2425 32.8265L14.2469 32.9464V42.1875C14.2469 43.2971 15.1478 44.1964 16.2593 44.1964C17.3264 44.1964 18.1993 43.3676 18.2674 42.3196L18.2717 42.1875V18.0804C18.2717 17.8585 18.4519 17.6786 18.6742 17.6786C18.7546 17.6786 18.8295 17.7021 18.8924 17.7427C20.1336 18.5458 20.8879 19.5082 21.1451 20.4585C21.4839 21.7091 20.9821 23.1468 19.5481 24.5775C18.9195 25.2057 18.9195 26.2228 19.5478 26.8507C20.1771 27.4783 21.196 27.4783 21.8251 26.8509C24.0061 24.6729 24.923 22.0956 24.2528 19.6195C23.6145 17.2616 21.6246 15.3181 18.564 13.9843L18.199 13.83L17.8174 13.6836L17.2364 13.4765L16.5932 13.259C15.454 13.9895 14.0956 14.4137 12.637 14.4137C11.178 14.4137 9.81928 13.9893 8.67998 13.2585ZM19.0776 18.871L19.0772 23.9097C20.244 22.7065 20.618 21.591 20.368 20.6682C20.208 20.0768 19.7822 19.4521 19.0776 18.871ZM6.19656 23.9087L6.19561 18.8716C5.49149 19.4526 5.06592 20.0771 4.90591 20.6683C4.66025 21.5752 5.01733 22.6684 6.13779 23.8482L6.19656 23.9087ZM12.637 0.803571C9.05684 0.803571 6.15789 3.67227 6.15789 7.20643C6.15789 10.7413 9.05673 13.6101 12.637 13.6101C16.2172 13.6101 19.1161 10.7413 19.1161 7.20643C19.1161 3.67227 16.2171 0.803571 12.637 0.803571Z" fill="#5574F9"/>
<path d="M8.67998 13.2585L8.03751 13.4765C7.78086 13.5656 7.56834 13.6419 7.39738 13.7056L7.00662 13.8583L6.70736 13.9854C3.64939 15.3181 1.65947 17.2616 1.02121 19.6195C0.350979 22.0956 1.26791 24.6729 3.44871 26.8507C4.078 27.4783 5.09683 27.4783 5.72584 26.851C6.3545 26.2228 6.3545 25.2057 5.72607 24.5778C4.29184 23.1468 3.79011 21.7091 4.12884 20.4586C4.36999 19.5676 5.04801 18.666 6.15402 17.8955L6.40464 17.7289L6.46534 17.7015L6.53859 17.6832L6.59981 17.6786C6.62916 17.6786 6.65777 17.6817 6.68533 17.6877L6.74486 17.7055L6.79355 17.7281L6.83361 17.7532L6.86731 17.7801L6.89629 17.8086L6.94158 17.8682L6.96628 17.9141L6.98356 17.9589L6.99766 18.0189L7.00231 18.0755L7.00229 42.1875C7.00229 43.2971 7.90315 44.1964 9.01468 44.1964C10.0818 44.1964 10.9547 43.3676 11.0228 42.3196L11.0271 42.1875V32.9464C11.0271 32.0586 11.748 31.3393 12.637 31.3393C13.4856 31.3393 14.181 31.9947 14.2425 32.8265L14.2469 32.9464V42.1875C14.2469 43.2971 15.1478 44.1964 16.2593 44.1964C17.3264 44.1964 18.1993 43.3676 18.2674 42.3196L18.2717 42.1875V18.0804C18.2717 17.8585 18.4519 17.6786 18.6742 17.6786C18.7546 17.6786 18.8295 17.7021 18.8924 17.7427C20.1336 18.5458 20.8879 19.5082 21.1451 20.4585C21.4839 21.7091 20.9821 23.1468 19.5481 24.5775C18.9195 25.2057 18.9195 26.2228 19.5478 26.8507C20.1771 27.4783 21.196 27.4783 21.8251 26.8509C24.0061 24.6729 24.923 22.0956 24.2528 19.6195C23.6145 17.2616 21.6246 15.3181 18.564 13.9843L18.199 13.83L17.8174 13.6836L17.2364 13.4765L16.5932 13.259C15.454 13.9895 14.0956 14.4137 12.637 14.4137C11.178 14.4137 9.81928 13.9893 8.67998 13.2585Z" fill="#5574F9"/>
<path d="M12.637 0.803571C9.05684 0.803571 6.15789 3.67227 6.15789 7.20643C6.15789 10.7413 9.05673 13.6101 12.637 13.6101C16.2172 13.6101 19.1161 10.7413 19.1161 7.20643C19.1161 3.67227 16.2171 0.803571 12.637 0.803571Z" fill="#5574F9"/>
<path d="M72.637 0C76.6601 0 79.921 3.22689 79.921 7.20643C79.921 9.39418 78.9359 11.3544 77.3805 12.6762L77.9091 12.8617L78.0554 12.9148L78.4412 13.0611L78.8849 13.2473C82.1514 14.6701 84.32 16.7875 85.0298 19.4099C85.7825 22.1905 84.7644 25.0522 82.3942 27.4193C81.4883 28.3226 80.0438 28.3587 79.0946 27.5274L79.0759 27.5095L79.0766 42.1875C79.0766 43.7409 77.8154 45 76.2593 45C74.7551 45 73.5264 43.8235 73.4461 42.3418L73.4419 42.1875V32.9464C73.4419 32.5025 73.0815 32.1429 72.637 32.1429C72.2242 32.1429 71.8839 32.4529 71.8374 32.8527L71.832 32.9464V42.1875C71.832 43.7409 70.5708 45 69.0147 45C67.5105 45 66.2817 43.8235 66.2015 42.3418L66.1973 42.1875L66.1971 27.5117C65.2485 28.3592 63.7914 28.3284 62.8796 27.4191C60.5095 25.0522 59.4915 22.1905 60.2441 19.4099C60.954 16.7875 63.1226 14.6701 66.3864 13.2484L66.7653 13.0883L67.0442 12.9796C67.1918 12.924 67.3714 12.8586 67.5847 12.7834L67.8935 12.6762C66.3381 11.3544 65.3529 9.39418 65.3529 7.20643C65.3529 3.22689 68.6139 0 72.637 0ZM68.68 13.2585L68.0375 13.4765C67.7809 13.5656 67.5683 13.6419 67.3974 13.7056L67.0066 13.8583L66.7074 13.9854C63.6494 15.3181 61.6595 17.2616 61.0212 19.6195C60.351 22.0956 61.2679 24.6729 63.4487 26.8507C64.078 27.4783 65.0968 27.4783 65.7258 26.851C66.3545 26.2228 66.3545 25.2057 65.7261 24.5778C64.2918 23.1468 63.7901 21.7091 64.1288 20.4586C64.37 19.5676 65.048 18.666 66.154 17.8955L66.4046 17.7289L66.4653 17.7015L66.5386 17.6832L66.5998 17.6786C66.6292 17.6786 66.6578 17.6817 66.6853 17.6877L66.7449 17.7055L66.7936 17.7281L66.8336 17.7532L66.8673 17.7801L66.8963 17.8086L66.9416 17.8682L66.9663 17.9141L66.9836 17.9589L66.9977 18.0189L67.0023 18.0755L67.0023 42.1875C67.0023 43.2971 67.9032 44.1964 69.0147 44.1964C70.0818 44.1964 70.9547 43.3676 71.0228 42.3196L71.0271 42.1875V32.9464C71.0271 32.0586 71.748 31.3393 72.637 31.3393C73.4856 31.3393 74.181 31.9947 74.2425 32.8265L74.2469 32.9464V42.1875C74.2469 43.2971 75.1478 44.1964 76.2593 44.1964C77.3264 44.1964 78.1993 43.3676 78.2674 42.3196L78.2717 42.1875V18.0804C78.2717 17.8585 78.4519 17.6786 78.6742 17.6786C78.7546 17.6786 78.8295 17.7021 78.8924 17.7427C80.1336 18.5458 80.8879 19.5082 81.1451 20.4585C81.4839 21.7091 80.9821 23.1468 79.5481 24.5775C78.9195 25.2057 78.9195 26.2228 79.5478 26.8507C80.1771 27.4783 81.196 27.4783 81.8251 26.8509C84.0061 24.6729 84.923 22.0956 84.2528 19.6195C83.6145 17.2616 81.6246 15.3181 78.564 13.9843L78.199 13.83L77.8174 13.6836L77.2364 13.4765L76.5932 13.259C75.454 13.9895 74.0956 14.4137 72.637 14.4137C71.178 14.4137 69.8193 13.9893 68.68 13.2585ZM79.0776 18.871L79.0772 23.9097C80.244 22.7065 80.618 21.591 80.368 20.6682C80.208 20.0768 79.7822 19.4521 79.0776 18.871ZM66.1966 23.9087L66.1956 18.8716C65.4915 19.4526 65.0659 20.0771 64.9059 20.6683C64.6603 21.5752 65.0173 22.6684 66.1378 23.8482L66.1966 23.9087L66.1956 18.8716L66.1966 23.9087ZM72.637 0.803571C69.0568 0.803571 66.1579 3.67228 66.1579 7.20643C66.1579 10.7413 69.0567 13.6101 72.637 13.6101C76.2172 13.6101 79.1161 10.7413 79.1161 7.20643C79.1161 3.67228 76.2171 0.803571 72.637 0.803571Z" fill="black"/>
</svg>
