<svg width="45" height="41" viewBox="0 0 45 41" fill="none" xmlns="http://www.w3.org/2000/svg">
<path fill-rule="evenodd" clip-rule="evenodd" d="M43.8048 19.2538L35.5523 37.1484C35.3231 37.828 34.6354 38.281 33.7184 38.5075L14.0041 40.3196C13.0871 40.3196 12.3994 39.8666 11.941 39.187L0.479143 23.331C0.0206702 22.6515 -0.208566 21.7454 0.249907 21.0659L8.50241 3.17121C8.73165 2.49166 9.41936 2.03863 10.3363 1.81212L30.0506 0C30.9676 0 31.6553 0.453029 32.1138 1.13257L43.5756 16.9886C44.034 17.6681 44.2633 18.5742 43.8048 19.2538ZM23.632 20.3863L33.7184 34.2037L40.8247 18.3477L30.9676 4.53029L23.632 20.3863ZM30.9676 35.5628L21.3396 22.1984L4.37616 23.5575L14.0041 37.1484L30.9676 35.5628ZM3.68845 20.6128L20.8812 19.0272L28.2167 3.17121L11.024 4.75681L3.68845 20.6128Z" fill="black"/>
<path d="M32.3071 21.6725C31.1028 21.162 30.0646 22.1266 29.9882 23.827C29.9117 25.5274 30.8261 27.3198 32.0304 27.8303C33.2347 28.3409 34.2729 27.3763 34.3493 25.6759C34.4258 23.9754 33.5114 22.1831 32.3071 21.6725Z" fill="black"/>
<path d="M32.4161 9.61674C31.2638 9.12168 30.2278 10.057 30.102 11.7058C29.9762 13.3546 30.8083 15.0926 31.9606 15.5876C33.1128 16.0827 34.1488 15.1474 34.2746 13.4986C34.4004 11.8497 33.5683 10.1118 32.4161 9.61674Z" fill="black"/>
<path d="M17.9224 26.8815C19.1493 27.6515 20.826 27.734 21.6674 27.0657C22.5089 26.3974 22.1964 25.2314 20.9695 24.4615C19.7426 23.6915 18.0659 23.609 17.2245 24.2773C16.3831 24.9456 16.6956 26.1115 17.9224 26.8815Z" fill="black"/>
<path d="M9.28182 27.8011C10.5087 28.5712 12.1854 28.6536 13.0268 27.9853C13.8683 27.317 13.5558 26.151 12.3289 25.3809C11.102 24.6109 9.42531 24.5285 8.58388 25.1968C7.74246 25.8651 8.05493 27.0311 9.28182 27.8011Z" fill="black"/>
<path d="M22.7057 33.6453C23.9325 34.4153 25.6092 34.4977 26.4506 33.8294C27.2921 33.1611 26.9796 31.9951 25.7527 31.2251C24.5258 30.455 22.8491 30.3726 22.0077 31.0409C21.1663 31.7092 21.4788 32.8752 22.7057 33.6453Z" fill="black"/>
<path d="M14.067 34.5648C15.2939 35.3347 16.9706 35.4172 17.812 34.7489C18.6534 34.0806 18.3409 32.9147 17.1141 32.1447C15.8872 31.3747 14.2105 31.2922 13.369 31.9605C12.5276 32.6288 12.8401 33.7948 14.067 34.5648Z" fill="black"/>
<path d="M14.9859 15.1933C13.329 15.6883 12.1447 14.753 12.3405 13.1043C12.5364 11.4556 14.0384 9.71777 15.6953 9.22274C17.3521 8.72771 18.5365 9.66296 18.3406 11.3117C18.1448 12.9604 16.6428 14.6982 14.9859 15.1933Z" fill="black"/>
</svg>
