<svg width="384" height="153" viewBox="0 0 384 153" fill="none" xmlns="http://www.w3.org/2000/svg">
<g filter="url(#filter0_d)">
<path d="M4.05371 72.79C4.05371 60.6318 6.93457 50.8418 12.6963 43.4199C18.5068 35.998 26.3193 32.2871 36.1338 32.2871C44.8252 32.2871 51.5879 35.2656 56.4219 41.2227L57.3008 33.752H76.4902V110.363C76.4902 117.297 74.9033 123.327 71.7295 128.454C68.6045 133.581 64.1855 137.487 58.4727 140.173C52.7598 142.858 46.0703 144.201 38.4043 144.201C32.5938 144.201 26.9297 143.029 21.4121 140.686C15.8945 138.391 11.7197 135.412 8.8877 131.75L18.2627 118.859C23.5361 124.768 29.9326 127.722 37.4521 127.722C43.0674 127.722 47.4375 126.208 50.5625 123.181C53.6875 120.202 55.25 115.954 55.25 110.437V106.188C50.3672 111.706 43.9463 114.465 35.9873 114.465C26.4658 114.465 18.751 110.754 12.8428 103.332C6.9834 95.8613 4.05371 85.9736 4.05371 73.6689V72.79ZM25.2207 74.3281C25.2207 81.5059 26.6611 87.1455 29.542 91.2471C32.4229 95.2998 36.3779 97.3262 41.4072 97.3262C47.8525 97.3262 52.4668 94.9092 55.25 90.0752V56.75C52.418 51.916 47.8525 49.499 41.5537 49.499C36.4756 49.499 32.4717 51.5742 29.542 55.7246C26.6611 59.875 25.2207 66.0762 25.2207 74.3281ZM94.0273 72.6436C94.0273 64.7822 95.541 57.7754 98.5684 51.623C101.596 45.4707 105.941 40.71 111.605 37.3408C117.318 33.9717 123.935 32.2871 131.454 32.2871C142.147 32.2871 150.863 35.5586 157.602 42.1016C164.389 48.6445 168.173 57.5312 168.954 68.7617L169.101 74.1816C169.101 86.3398 165.707 96.1055 158.92 103.479C152.133 110.803 143.026 114.465 131.601 114.465C120.175 114.465 111.044 110.803 104.208 103.479C97.4209 96.1543 94.0273 86.1934 94.0273 73.5957V72.6436ZM115.194 74.1816C115.194 81.7012 116.61 87.4629 119.442 91.4668C122.274 95.4219 126.327 97.3994 131.601 97.3994C136.728 97.3994 140.731 95.4463 143.612 91.54C146.493 87.585 147.934 81.2861 147.934 72.6436C147.934 65.2705 146.493 59.5576 143.612 55.5049C140.731 51.4521 136.679 49.4258 131.454 49.4258C126.278 49.4258 122.274 51.4521 119.442 55.5049C116.61 59.5088 115.194 65.7344 115.194 74.1816ZM232.561 113C231.584 111.096 230.876 108.728 230.437 105.896C225.31 111.608 218.645 114.465 210.441 114.465C202.678 114.465 196.232 112.219 191.105 107.727C186.027 103.234 183.488 97.5703 183.488 90.7344C183.488 82.3359 186.589 75.8906 192.79 71.3984C199.04 66.9062 208.049 64.6357 219.816 64.5869H229.558V60.0459C229.558 56.3838 228.605 53.4541 226.701 51.2568C224.846 49.0596 221.892 47.9609 217.839 47.9609C214.274 47.9609 211.467 48.8154 209.416 50.5244C207.414 52.2334 206.413 54.5771 206.413 57.5557H185.246C185.246 52.9658 186.662 48.7178 189.494 44.8115C192.326 40.9053 196.33 37.8535 201.506 35.6562C206.682 33.4102 212.492 32.2871 218.938 32.2871C228.703 32.2871 236.442 34.7529 242.155 39.6846C247.917 44.5674 250.798 51.4521 250.798 60.3389V94.6895C250.847 102.209 251.896 107.897 253.947 111.755V113H232.561ZM215.056 98.2783C218.181 98.2783 221.062 97.5947 223.698 96.2275C226.335 94.8115 228.288 92.9316 229.558 90.5879V76.9648H221.647C211.052 76.9648 205.412 80.627 204.729 87.9512L204.655 89.1963C204.655 91.833 205.583 94.0059 207.438 95.7148C209.294 97.4238 211.833 98.2783 215.056 98.2783ZM293.896 113H272.656V0.5H293.896V113ZM358.821 91.1006C358.821 88.5127 357.527 86.4863 354.939 85.0215C352.4 83.5078 348.299 82.165 342.635 80.9932C323.787 77.0381 314.363 69.0303 314.363 56.9697C314.363 49.9385 317.269 44.0791 323.079 39.3916C328.938 34.6553 336.58 32.2871 346.004 32.2871C356.062 32.2871 364.095 34.6553 370.101 39.3916C376.155 44.1279 379.183 50.2803 379.183 57.8486H358.016C358.016 54.8213 357.039 52.3311 355.086 50.3779C353.133 48.376 350.081 47.375 345.931 47.375C342.366 47.375 339.607 48.1807 337.654 49.792C335.701 51.4033 334.725 53.4541 334.725 55.9443C334.725 58.2881 335.823 60.1924 338.021 61.6572C340.267 63.0732 344.026 64.3184 349.3 65.3926C354.573 66.418 359.017 67.5898 362.63 68.9082C373.812 73.0098 379.402 80.1143 379.402 90.2217C379.402 97.4482 376.302 103.308 370.101 107.8C363.899 112.243 355.892 114.465 346.077 114.465C339.437 114.465 333.528 113.293 328.353 110.949C323.226 108.557 319.197 105.31 316.268 101.208C313.338 97.0576 311.873 92.5898 311.873 87.8047H331.941C332.137 91.5645 333.528 94.4453 336.116 96.4473C338.704 98.4492 342.171 99.4502 346.517 99.4502C350.569 99.4502 353.621 98.6934 355.672 97.1797C357.771 95.6172 358.821 93.5908 358.821 91.1006Z" fill="#EDF67D"/>
<path d="M12.6963 43.4199L11.1215 42.187L11.1165 42.1935L12.6963 43.4199ZM56.4219 41.2227L54.8689 42.4829L57.8545 46.1622L58.4082 41.4563L56.4219 41.2227ZM57.3008 33.752V31.752H55.5223L55.3145 33.5183L57.3008 33.752ZM76.4902 33.752H78.4902V31.752H76.4902V33.752ZM71.7295 128.454L70.0289 127.401L70.0217 127.413L71.7295 128.454ZM21.4121 140.686L22.194 138.845L22.1871 138.842L22.1802 138.839L21.4121 140.686ZM8.8877 131.75L7.27022 130.574L6.38791 131.787L7.30559 132.973L8.8877 131.75ZM18.2627 118.859L19.7548 117.528L18.1036 115.678L16.6452 117.683L18.2627 118.859ZM50.5625 123.181L49.1826 121.733L49.1767 121.739L49.1709 121.744L50.5625 123.181ZM55.25 106.188H57.25V100.911L53.7523 104.863L55.25 106.188ZM12.8428 103.332L11.2691 104.566L11.2735 104.572L11.278 104.578L12.8428 103.332ZM29.542 91.2471L27.9053 92.3966L27.9119 92.4058L29.542 91.2471ZM55.25 90.0752L56.9832 91.0731L57.25 90.6098V90.0752H55.25ZM55.25 56.75H57.25V56.2073L56.9757 55.739L55.25 56.75ZM29.542 55.7246L27.9081 54.5712L27.9035 54.5777L27.899 54.5842L29.542 55.7246ZM6.05371 72.79C6.05371 60.9444 8.85771 51.626 14.2761 44.6464L11.1165 42.1935C5.01143 50.0576 2.05371 60.3193 2.05371 72.79H6.05371ZM14.2711 44.6528C19.6847 37.7379 26.9048 34.2871 36.1338 34.2871V30.2871C25.7339 30.2871 17.3289 34.2582 11.1215 42.187L14.2711 44.6528ZM36.1338 34.2871C44.3129 34.2871 50.4682 37.0598 54.8689 42.4829L57.9749 39.9624C52.7076 33.4715 45.3375 30.2871 36.1338 30.2871V34.2871ZM58.4082 41.4563L59.2871 33.9856L55.3145 33.5183L54.4356 40.989L58.4082 41.4563ZM57.3008 35.752H76.4902V31.752H57.3008V35.752ZM74.4902 33.752V110.363H78.4902V33.752H74.4902ZM74.4902 110.363C74.4902 116.982 72.9791 122.636 70.029 127.401L73.43 129.507C76.8275 124.019 78.4902 117.612 78.4902 110.363H74.4902ZM70.0217 127.413C67.1116 132.188 62.999 135.835 57.6218 138.363L59.3235 141.983C65.372 139.14 70.0974 134.974 73.4373 129.495L70.0217 127.413ZM57.6218 138.363C52.226 140.899 45.8381 142.201 38.4043 142.201V146.201C46.3025 146.201 53.2936 144.817 59.3235 141.983L57.6218 138.363ZM38.4043 142.201C32.871 142.201 27.4723 141.087 22.194 138.845L20.6302 142.526C26.387 144.972 32.3165 146.201 38.4043 146.201V142.201ZM22.1802 138.839C16.8923 136.64 13.0361 133.845 10.4698 130.527L7.30559 132.973C10.4034 136.979 14.8967 140.142 20.644 142.532L22.1802 138.839ZM10.5052 132.926L19.8802 120.036L16.6452 117.683L7.27022 130.574L10.5052 132.926ZM16.7706 120.191C22.4006 126.499 29.3293 129.722 37.4521 129.722V125.722C30.5359 125.722 24.6716 123.036 19.7548 117.528L16.7706 120.191ZM37.4521 129.722C43.4299 129.722 48.3567 128.102 51.9541 124.617L49.1709 121.744C46.5183 124.314 42.7049 125.722 37.4521 125.722V129.722ZM51.9424 124.628C55.5664 121.174 57.25 116.34 57.25 110.437H53.25C53.25 115.568 51.8086 119.23 49.1826 121.733L51.9424 124.628ZM57.25 110.437V106.188H53.25V110.437H57.25ZM53.7523 104.863C49.2821 109.914 43.4253 112.465 35.9873 112.465V116.465C44.4673 116.465 51.4523 113.498 56.7477 107.514L53.7523 104.863ZM35.9873 112.465C27.0724 112.465 19.9346 109.03 14.4075 102.086L11.278 104.578C17.5673 112.478 25.8592 116.465 35.9873 116.465V112.465ZM14.4165 102.098C8.90575 95.0716 6.05371 85.6597 6.05371 73.6689H2.05371C2.05371 86.2876 5.06104 96.6511 11.2691 104.566L14.4165 102.098ZM6.05371 73.6689V72.79H2.05371V73.6689H6.05371ZM23.2207 74.3281C23.2207 81.7466 24.7059 87.8414 27.9054 92.3966L31.1786 90.0975C28.6164 86.4496 27.2207 81.2651 27.2207 74.3281H23.2207ZM27.9119 92.4058C31.173 96.9935 35.7393 99.3262 41.4072 99.3262V95.3262C37.0166 95.3262 33.6727 93.6061 31.1721 90.0883L27.9119 92.4058ZM41.4072 99.3262C48.4349 99.3262 53.7814 96.6343 56.9832 91.0731L53.5168 89.0773C51.1522 93.1841 47.2701 95.3262 41.4072 95.3262V99.3262ZM57.25 90.0752V56.75H53.25V90.0752H57.25ZM56.9757 55.739C53.7342 50.2061 48.4565 47.499 41.5537 47.499V51.499C47.2486 51.499 51.1018 53.6259 53.5243 57.761L56.9757 55.739ZM41.5537 47.499C35.8254 47.499 31.2123 49.8902 27.9081 54.5712L31.1759 56.878C33.731 53.2582 37.1258 51.499 41.5537 51.499V47.499ZM27.899 54.5842C24.6804 59.2211 23.2207 65.9035 23.2207 74.3281H27.2207C27.2207 66.2488 28.6418 60.5289 31.185 56.865L27.899 54.5842ZM111.605 37.3408L110.589 35.6181L110.583 35.6219L111.605 37.3408ZM157.602 42.1016L156.208 43.5364L156.213 43.5414L157.602 42.1016ZM168.954 68.7617L170.953 68.7077L170.952 68.6653L170.949 68.6229L168.954 68.7617ZM169.101 74.1816H171.101V74.1546L171.1 74.1276L169.101 74.1816ZM158.92 103.479L160.387 104.838L160.391 104.833L158.92 103.479ZM104.208 103.479L102.741 104.838L102.746 104.843L104.208 103.479ZM119.442 91.4668L117.81 92.6217L117.816 92.6312L119.442 91.4668ZM143.612 91.54L145.222 92.7271L145.229 92.7176L143.612 91.54ZM119.442 55.5049L121.075 56.6598L121.082 56.6505L119.442 55.5049ZM96.0273 72.6436C96.0273 65.0435 97.4893 58.346 100.363 52.5061L96.7738 50.74C93.5928 57.2048 92.0273 64.521 92.0273 72.6436H96.0273ZM100.363 52.5061C103.227 46.6864 107.311 42.2226 112.628 39.0597L110.583 35.6219C104.572 39.1973 99.9649 44.255 96.7738 50.74L100.363 52.5061ZM112.621 39.0636C117.987 35.8992 124.243 34.2871 131.454 34.2871V30.2871C123.626 30.2871 116.65 32.0442 110.59 35.6181L112.621 39.0636ZM131.454 34.2871C141.705 34.2871 149.896 37.4068 156.208 43.5364L158.995 40.6667C151.831 33.7104 142.59 30.2871 131.454 30.2871V34.2871ZM156.213 43.5414C162.577 49.6764 166.205 58.0627 166.959 68.9005L170.949 68.6229C170.141 56.9998 166.2 47.6127 158.99 40.6617L156.213 43.5414ZM166.955 68.8158L167.101 74.2357L171.1 74.1276L170.953 68.7077L166.955 68.8158ZM167.101 74.1816C167.101 85.9507 163.826 95.1955 157.448 102.124L160.391 104.833C167.588 97.0155 171.101 86.729 171.101 74.1816H167.101ZM157.453 102.119C151.1 108.974 142.558 112.465 131.601 112.465V116.465C143.495 116.465 153.165 112.631 160.387 104.838L157.453 102.119ZM131.601 112.465C120.644 112.465 112.073 108.974 105.67 102.114L102.746 104.843C110.015 112.631 119.706 116.465 131.601 116.465V112.465ZM105.675 102.119C99.3136 95.2543 96.0273 85.8265 96.0273 73.5957H92.0273C92.0273 86.5602 95.5282 97.0542 102.741 104.838L105.675 102.119ZM96.0273 73.5957V72.6436H92.0273V73.5957H96.0273ZM113.194 74.1816C113.194 81.9084 114.642 88.1436 117.81 92.6217L121.075 90.3119C118.579 86.7822 117.194 81.494 117.194 74.1816H113.194ZM117.816 92.6312C121.059 97.1602 125.745 99.3994 131.601 99.3994V95.3994C126.909 95.3994 123.49 93.6835 121.068 90.3024L117.816 92.6312ZM131.601 99.3994C137.321 99.3994 141.94 97.1774 145.222 92.7271L142.003 90.353C139.523 93.7152 136.134 95.3994 131.601 95.3994V99.3994ZM145.229 92.7176C148.487 88.2449 149.934 81.4226 149.934 72.6436H145.934C145.934 81.1497 144.5 86.925 141.996 90.3625L145.229 92.7176ZM149.934 72.6436C149.934 65.0455 148.455 58.865 145.242 54.3461L141.982 56.6636C144.532 60.2503 145.934 65.4955 145.934 72.6436H149.934ZM145.242 54.3461C141.964 49.7348 137.287 47.4258 131.454 47.4258V51.4258C136.07 51.4258 139.498 53.1695 141.982 56.6636L145.242 54.3461ZM131.454 47.4258C125.661 47.4258 121.029 49.7421 117.803 54.3593L121.082 56.6505C123.519 53.1622 126.895 51.4258 131.454 51.4258V47.4258ZM117.81 54.35C114.621 58.8582 113.194 65.5871 113.194 74.1816H117.194C117.194 65.8817 118.6 60.1594 121.075 56.6598L117.81 54.35ZM232.561 113L230.781 113.913L231.339 115H232.561V113ZM230.437 105.896L232.413 105.589L231.766 101.42L228.948 104.56L230.437 105.896ZM191.105 107.727L189.78 109.225L189.787 109.231L191.105 107.727ZM192.79 71.3984L191.623 69.7744L191.617 69.7788L192.79 71.3984ZM219.816 64.5869V62.5869L219.808 62.5869L219.816 64.5869ZM229.558 64.5869V66.5869H231.558V64.5869H229.558ZM226.701 51.2568L225.173 52.5472L225.181 52.557L225.19 52.5667L226.701 51.2568ZM209.416 50.5244L208.136 48.988L208.127 48.9956L208.117 49.0033L209.416 50.5244ZM206.413 57.5557V59.5557H208.413V57.5557H206.413ZM185.246 57.5557H183.246V59.5557H185.246V57.5557ZM201.506 35.6562L202.287 37.4972L202.295 37.4941L202.302 37.4909L201.506 35.6562ZM242.155 39.6846L240.848 41.1985L240.855 41.2045L240.862 41.2104L242.155 39.6846ZM250.798 94.6895H248.798L248.798 94.7024L250.798 94.6895ZM253.947 111.755H255.947V111.256L255.713 110.816L253.947 111.755ZM253.947 113V115H255.947V113H253.947ZM223.698 96.2275L224.619 98.003L224.632 97.9964L224.645 97.9895L223.698 96.2275ZM229.558 90.5879L231.316 91.5405L231.558 91.0948V90.5879H229.558ZM229.558 76.9648H231.558V74.9648H229.558V76.9648ZM204.729 87.9512L202.737 87.7653L202.734 87.7995L202.732 87.8337L204.729 87.9512ZM204.655 89.1963L202.659 89.0788L202.655 89.1375V89.1963H204.655ZM234.34 112.087C233.488 110.425 232.83 108.277 232.413 105.589L228.46 106.202C228.922 109.178 229.68 111.766 230.781 113.913L234.34 112.087ZM228.948 104.56C224.229 109.818 218.121 112.465 210.441 112.465V116.465C219.169 116.465 226.39 113.399 231.925 107.231L228.948 104.56ZM210.441 112.465C203.091 112.465 197.135 110.351 192.423 106.222L189.787 109.231C195.33 114.087 202.265 116.465 210.441 116.465V112.465ZM192.431 106.229C187.786 102.12 185.488 97.0028 185.488 90.7344H181.488C181.488 98.1378 184.269 104.349 189.78 109.225L192.431 106.229ZM185.488 90.7344C185.488 82.905 188.337 77.0937 193.963 73.0181L191.617 69.7788C184.84 74.6875 181.488 81.7669 181.488 90.7344H185.488ZM193.957 73.0225C199.734 68.8707 208.267 66.6349 219.825 66.5869L219.808 62.5869C207.831 62.6366 198.346 64.9418 191.623 69.7744L193.957 73.0225ZM219.816 66.5869H229.558V62.5869H219.816V66.5869ZM231.558 64.5869V60.0459H227.558V64.5869H231.558ZM231.558 60.0459C231.558 56.0314 230.507 52.5946 228.213 49.947L225.19 52.5667C226.704 54.3136 227.558 56.7362 227.558 60.0459H231.558ZM228.229 49.9665C225.857 47.1575 222.23 45.9609 217.839 45.9609V49.9609C221.553 49.9609 223.834 50.9616 225.173 52.5472L228.229 49.9665ZM217.839 45.9609C213.964 45.9609 210.651 46.892 208.136 48.988L210.696 52.0609C212.283 50.7389 214.585 49.9609 217.839 49.9609V45.9609ZM208.117 49.0033C205.609 51.1448 204.413 54.078 204.413 57.5557H208.413C208.413 55.0763 209.219 53.322 210.715 52.0455L208.117 49.0033ZM206.413 55.5557H185.246V59.5557H206.413V55.5557ZM187.246 57.5557C187.246 53.4099 188.515 49.5689 191.113 45.9855L187.875 43.6376C184.809 47.8666 183.246 52.5217 183.246 57.5557H187.246ZM191.113 45.9855C193.699 42.4193 197.39 39.5762 202.287 37.4972L200.724 33.8153C195.27 36.1308 190.954 39.3913 187.875 43.6376L191.113 45.9855ZM202.302 37.4909C207.193 35.3684 212.727 34.2871 218.938 34.2871V30.2871C212.257 30.2871 206.17 31.452 200.71 33.8216L202.302 37.4909ZM218.938 34.2871C228.367 34.2871 235.595 36.6633 240.848 41.1985L243.462 38.1706C237.29 32.8426 229.039 30.2871 218.938 30.2871V34.2871ZM240.862 41.2104C246.095 45.6447 248.798 51.925 248.798 60.3389H252.798C252.798 50.9793 249.739 43.4901 243.448 38.1588L240.862 41.2104ZM248.798 60.3389V94.6895H252.798V60.3389H248.798ZM248.798 94.7024C248.848 102.343 249.906 108.414 252.181 112.694L255.713 110.816C253.887 107.381 252.846 102.075 252.798 94.6765L248.798 94.7024ZM251.947 111.755V113H255.947V111.755H251.947ZM253.947 111H232.561V115H253.947V111ZM215.056 100.278C218.484 100.278 221.683 99.5255 224.619 98.003L222.778 94.452C220.44 95.664 217.877 96.2783 215.056 96.2783V100.278ZM224.645 97.9895C227.582 96.4122 229.838 94.2687 231.316 91.5405L227.799 89.6353C226.738 91.5946 225.088 93.2108 222.752 94.4655L224.645 97.9895ZM231.558 90.5879V76.9648H227.558V90.5879H231.558ZM229.558 74.9648H221.647V78.9648H229.558V74.9648ZM221.647 74.9648C216.167 74.9648 211.663 75.9035 208.382 78.034C204.996 80.2324 203.13 83.5597 202.737 87.7653L206.72 88.137C207.011 85.0184 208.306 82.8525 210.56 81.3888C212.919 79.8572 216.532 78.9648 221.647 78.9648V74.9648ZM202.732 87.8337L202.659 89.0788L206.652 89.3137L206.725 88.0686L202.732 87.8337ZM202.655 89.1963C202.655 92.3634 203.796 95.0793 206.084 97.1859L208.793 94.2438C207.37 92.9324 206.655 91.3026 206.655 89.1963H202.655ZM206.084 97.1859C208.402 99.3216 211.475 100.278 215.056 100.278V96.2783C212.191 96.2783 210.186 95.5261 208.793 94.2438L206.084 97.1859ZM293.896 113V115H295.896V113H293.896ZM272.656 113H270.656V115H272.656V113ZM272.656 0.5V-1.5H270.656V0.5H272.656ZM293.896 0.5H295.896V-1.5H293.896V0.5ZM293.896 111H272.656V115H293.896V111ZM274.656 113V0.5H270.656V113H274.656ZM272.656 2.5H293.896V-1.5H272.656V2.5ZM291.896 0.5V113H295.896V0.5H291.896ZM354.939 85.0215L353.915 86.7394L353.935 86.7509L353.954 86.762L354.939 85.0215ZM342.635 80.9932L342.224 82.9505L342.23 82.9517L342.635 80.9932ZM323.079 39.3916L324.335 40.9482L324.336 40.947L323.079 39.3916ZM370.101 39.3916L368.862 40.962L368.868 40.9669L370.101 39.3916ZM379.183 57.8486V59.8486H381.183V57.8486H379.183ZM358.016 57.8486H356.016V59.8486H358.016V57.8486ZM355.086 50.3779L353.654 51.7746L353.663 51.7834L353.672 51.7921L355.086 50.3779ZM338.021 61.6572L336.911 63.3213L336.932 63.3355L336.954 63.3491L338.021 61.6572ZM349.3 65.3926L348.901 67.3523L348.909 67.3541L348.918 67.3558L349.3 65.3926ZM362.63 68.9082L363.319 67.0305L363.315 67.0294L362.63 68.9082ZM370.101 107.8L371.266 109.426L371.274 109.419L370.101 107.8ZM328.353 110.949L327.507 112.762L327.517 112.766L327.528 112.771L328.353 110.949ZM316.268 101.208L314.634 102.361L314.64 102.37L316.268 101.208ZM311.873 87.8047V85.8047H309.873V87.8047H311.873ZM331.941 87.8047L333.939 87.7009L333.84 85.8047H331.941V87.8047ZM355.672 97.1797L356.86 98.7888L356.866 98.7842L355.672 97.1797ZM360.821 91.1006C360.821 87.6716 359.027 85.0372 355.925 83.281L353.954 86.762C356.027 87.9354 356.821 89.3537 356.821 91.1006H360.821ZM355.964 83.3036C353.127 81.6126 348.755 80.2171 343.04 79.0346L342.23 82.9517C347.843 84.113 351.674 85.403 353.915 86.7394L355.964 83.3036ZM343.046 79.0358C333.783 77.0921 327.081 74.1972 322.726 70.4969C318.448 66.8619 316.363 62.3962 316.363 56.9697H312.363C312.363 63.6038 314.99 69.1723 320.136 73.5451C325.205 77.8526 332.639 80.9392 342.224 82.9505L343.046 79.0358ZM316.363 56.9697C316.363 50.5849 318.962 45.283 324.335 40.9482L321.823 37.835C315.576 42.8752 312.363 49.2921 312.363 56.9697H316.363ZM324.336 40.947C329.758 36.5645 336.92 34.2871 346.004 34.2871V30.2871C336.24 30.2871 328.119 32.7461 321.822 37.8362L324.336 40.947ZM346.004 34.2871C355.755 34.2871 363.307 36.5808 368.862 40.962L371.339 37.8212C364.883 32.7298 356.37 30.2871 346.004 30.2871V34.2871ZM368.868 40.9669C374.447 45.3311 377.183 50.9067 377.183 57.8486H381.183C381.183 49.6538 377.863 42.9248 371.333 37.8163L368.868 40.9669ZM379.183 55.8486H358.016V59.8486H379.183V55.8486ZM360.016 57.8486C360.016 54.3469 358.866 51.3297 356.5 48.9637L353.672 51.7921C355.212 53.3324 356.016 55.2957 356.016 57.8486H360.016ZM356.517 48.9813C354.039 46.4405 350.36 45.375 345.931 45.375V49.375C349.802 49.375 352.227 50.3115 353.654 51.7746L356.517 48.9813ZM345.931 45.375C342.088 45.375 338.814 46.2421 336.382 48.2492L338.927 51.3347C340.4 50.1192 342.644 49.375 345.931 49.375V45.375ZM336.382 48.2492C333.977 50.2331 332.725 52.8456 332.725 55.9443H336.725C336.725 54.0626 337.426 52.5735 338.927 51.3347L336.382 48.2492ZM332.725 55.9443C332.725 59.0503 334.24 61.5406 336.911 63.3213L339.13 59.9931C337.406 58.8441 336.725 57.5258 336.725 55.9443H332.725ZM336.954 63.3491C339.522 64.9683 343.583 66.269 348.901 67.3523L349.699 63.4328C344.47 62.3677 341.011 61.1782 339.087 59.9654L336.954 63.3491ZM348.918 67.3558C354.125 68.3683 358.46 69.5158 361.944 70.787L363.315 67.0294C359.573 65.6639 355.021 64.4676 349.682 63.4293L348.918 67.3558ZM361.941 70.7859C367.292 72.7486 371.133 75.3674 373.638 78.5496C376.123 81.7077 377.402 85.5607 377.402 90.2217H381.402C381.402 84.7753 379.887 80.0223 376.781 76.0759C373.694 72.1536 369.15 69.1694 363.319 67.0305L361.941 70.7859ZM377.402 90.2217C377.402 96.7635 374.646 102.038 368.927 106.18L371.274 109.419C377.958 104.577 381.402 98.133 381.402 90.2217H377.402ZM368.936 106.174C363.16 110.313 355.593 112.465 346.077 112.465V116.465C356.19 116.465 364.639 114.174 371.265 109.426L368.936 106.174ZM346.077 112.465C339.673 112.465 334.054 111.336 329.178 109.127L327.528 112.771C333.003 115.25 339.2 116.465 346.077 116.465V112.465ZM329.198 109.137C324.345 106.872 320.601 103.834 317.895 100.046L314.64 102.37C317.794 106.785 322.107 110.242 327.507 112.762L329.198 109.137ZM317.902 100.055C315.194 96.2197 313.873 92.1507 313.873 87.8047H309.873C309.873 93.029 311.481 97.8956 314.634 102.361L317.902 100.055ZM311.873 89.8047H331.941V85.8047H311.873V89.8047ZM329.944 87.9084C330.165 92.1526 331.772 95.615 334.892 98.0292L337.34 94.8654C335.285 93.2756 334.109 90.9763 333.939 87.7009L329.944 87.9084ZM334.892 98.0292C337.93 100.379 341.873 101.45 346.517 101.45V97.4502C342.469 97.4502 339.478 96.5192 337.34 94.8654L334.892 98.0292ZM346.517 101.45C350.763 101.45 354.315 100.667 356.86 98.7888L354.484 95.5705C352.927 96.7199 350.376 97.4502 346.517 97.4502V101.45ZM356.866 98.7842C359.442 96.8668 360.821 94.2598 360.821 91.1006H356.821C356.821 92.9219 356.101 94.3676 354.478 95.5752L356.866 98.7842Z" fill="black"/>
</g>
<defs>
<filter id="filter0_d" x="0.0546875" y="0.5" width="383.349" height="151.701" filterUnits="userSpaceOnUse" color-interpolation-filters="sRGB">
<feFlood flood-opacity="0" result="BackgroundImageFix"/>
<feColorMatrix in="SourceAlpha" type="matrix" values="0 0 0 0 0 0 0 0 0 0 0 0 0 0 0 0 0 0 127 0"/>
<feOffset dy="4"/>
<feGaussianBlur stdDeviation="2"/>
<feColorMatrix type="matrix" values="0 0 0 0 0 0 0 0 0 0 0 0 0 0 0 0 0 0 0.25 0"/>
<feBlend mode="normal" in2="BackgroundImageFix" result="effect1_dropShadow"/>
<feBlend mode="normal" in="SourceGraphic" in2="effect1_dropShadow" result="shape"/>
</filter>
</defs>
</svg>
