<svg width="516" height="507" viewBox="0 0 516 507" fill="none" xmlns="http://www.w3.org/2000/svg">
<path d="M447.698 209.349C440.624 209.589 434.511 209.826 428.606 209.671C423.564 209.399 418.541 208.844 413.561 208.009C408.749 207.16 403.812 207.346 399.079 208.553C396.512 209.051 393.866 208.965 391.336 208.302C380.483 207.028 369.545 206.755 358.653 206.012C345.515 205.12 332.475 205.211 319.22 205.634C298.28 206.078 277.341 207.142 256.404 207.307C237.137 207.43 217.867 207.212 198.44 205.738C189.883 205.104 181.312 205.245 172.746 204.828C161.471 204.278 150.348 203.403 138.922 202.899C135.71 202.647 132.492 203.29 129.624 204.756C108.692 215.833 87.1407 225.7 65.0773 234.31C47.9095 240.911 30.3862 246.548 12.5891 251.195C8.99278 251.778 5.51802 252.951 2.30567 254.669C1.87836 254.835 1.50125 255.108 1.21098 255.463C0.920698 255.818 0.727042 256.242 0.648864 256.693C0.695219 258.084 1.87069 258.369 2.94489 258.572C5.60891 259.174 8.29438 259.682 10.986 260.25C23.4099 262.979 35.6989 266.218 48.0769 270.036C53.7672 271.762 59.7887 272.464 65.476 274.47C79.958 279.953 94.1233 286.24 107.906 293.3C114.832 296.58 121.58 300.222 128.124 304.21C128.925 304.773 129.832 305.168 130.79 305.371C131.748 305.574 132.737 305.58 133.697 305.39C140.567 304.646 147.488 304.485 154.385 304.909C165.473 304.517 176.623 304.738 187.761 305.457C203.993 306.288 220.47 305.854 236.849 305.678C257.491 305.667 278.437 305.904 299.229 305.226C317.167 304.523 334.94 305.882 352.771 306.895C365.519 307.342 378.219 308.696 390.775 310.948C401.278 313.063 411.418 311.556 421.693 311.4C424.607 311.442 427.517 311.659 430.406 312.051C440.175 313.356 450.086 313.142 459.788 311.416C463.065 310.92 466.133 309.502 468.632 307.326C471.131 305.15 472.958 302.308 473.899 299.13C477.917 284.783 481.759 270.236 479.401 255.066C479.038 251.441 479.025 247.788 479.362 244.16C479.417 236.867 478.48 229.599 476.577 222.556C475.84 219.048 473.96 215.883 471.23 213.557C468.501 211.232 465.077 209.879 461.496 209.709C456.911 209.258 452.3 209.137 447.698 209.349ZM135.587 205.804C137.926 205.72 140.267 205.756 142.603 205.911C162.914 208.163 183.347 207.925 203.698 209.027C226.846 210.315 249.985 210.468 273.112 209.485C287.711 208.867 302.283 208.902 316.821 208.29C331.358 207.678 346.697 207.947 361.533 208.762C373.379 209.441 385.158 210.685 396.94 211.649C397.859 211.634 398.753 211.945 399.464 212.527C400.175 213.108 400.656 213.923 400.823 214.826C402.396 219.485 404.601 223.907 407.379 227.965C410.651 234.024 414.277 240.202 412.625 247.526C412.566 248.258 412.588 248.994 412.69 249.721C413.075 258.825 412.841 267.93 412.423 277.053C412.581 278.316 412.341 279.597 411.736 280.717C406.442 288.548 401.648 296.707 397.385 305.145C396.841 306.193 395.962 307.029 394.887 307.518C393.812 308.007 392.604 308.122 391.456 307.843C386.45 307.071 381.687 306.554 376.817 305.893C356.015 303.311 335.084 301.91 314.125 301.696C304.283 301.53 294.294 302.371 284.608 302.22C274.922 302.07 265.632 301.849 256.155 301.926C239.592 302.12 223.053 302.559 206.462 302.787C194.233 302.921 182.058 301.748 169.88 301.474C160.031 301.247 150.156 301.673 140.338 301.753C139.132 301.78 137.806 302.16 136.879 300.951C136.931 300.543 136.888 300.113 137.115 299.905C143.212 293.625 148.498 286.682 154.122 280.016C154.891 279.277 155.451 278.347 155.745 277.322C156.04 276.297 156.058 275.212 155.799 274.177C153.673 261.613 152.77 248.874 153.102 236.137C153.227 234.351 152.952 232.56 152.297 230.893C151.642 229.227 150.624 227.727 149.316 226.503C143.541 220.47 138.9 213.447 135.615 205.77L135.587 205.804ZM52.2843 241.815C53.7757 241.232 55.0431 240.579 56.3964 240.165C72.138 234.958 87.5206 228.724 102.445 221.505C111.345 217.518 119.498 212.583 128.333 208.882C132.316 207.184 132.534 207.193 134.658 211.072C137.572 217.142 141.479 222.682 146.22 227.463C147.711 228.766 148.869 230.407 149.598 232.248C150.327 234.089 150.606 236.078 150.411 238.048C149.545 248.455 150.136 258.932 152.168 269.177C153.092 271.732 153.179 274.514 152.414 277.121C151.65 279.727 150.075 282.022 147.917 283.672C146.634 284.964 145.479 286.377 144.466 287.89C141.045 292.154 137.337 296.179 133.368 299.937C132.727 300.706 131.819 301.205 130.826 301.332C129.833 301.46 128.828 301.208 128.013 300.626C117.067 294.092 105.634 288.568 94.084 283.117C83.1409 277.612 71.7137 273.127 59.9477 269.721C57.7881 269.468 55.6896 268.838 53.7479 267.859C51.2463 266.094 54.7292 264.042 54.1793 261.958C54.058 261.23 54.0568 260.487 54.1758 259.758C54.6329 253.703 54.0016 247.615 52.312 241.781L52.2843 241.815ZM426.394 308.204C429.683 300.38 432.482 292.359 434.773 284.186C437.391 275.06 440.716 265.555 439.029 255.836C436.703 242.213 434.917 228.413 429.202 215.624C427.919 212.715 428.459 211.917 432.268 211.878C439.148 211.874 446.164 211.981 453.078 212.005C456.899 212.109 460.704 212.528 464.455 213.257C466.273 213.477 467.991 214.209 469.408 215.369C470.825 216.528 471.883 218.067 472.458 219.805C474.005 223.878 475.143 228.094 475.858 232.391C477.352 242.346 476.378 252.423 477.252 262.378C478.298 274.052 474.446 285.098 471.52 296.113C470.658 299.697 468.681 302.916 465.874 305.306C463.068 307.696 459.576 309.135 455.899 309.417C446.835 310.495 437.666 310.345 428.64 308.972C427.895 308.814 427.172 308.563 426.489 308.226L426.394 308.204ZM400.255 309.353C399.402 307.02 400.798 305.796 401.494 304.394C404.166 299.2 407.366 294.325 409.679 288.949C410.4 287.482 411.449 286.201 412.744 285.203C414.156 284.189 415.22 282.762 415.788 281.118C416.356 279.474 416.4 277.694 415.915 276.023C415.716 274.762 415.702 273.479 415.874 272.215C416.983 263.488 415.346 254.88 416.169 246.088C416.233 240.853 414.914 235.692 412.345 231.128C410.99 228.338 409.405 225.666 407.608 223.138C405.852 220.381 404.507 217.383 403.616 214.238C402.722 211.197 403.25 210.276 406.006 210.559C411.371 210.893 416.57 211.428 421.796 211.93C422.569 212.005 423.302 212.308 423.903 212.8C424.504 213.291 424.946 213.95 425.173 214.693C427.265 218.532 428.939 222.583 430.166 226.779C431.877 235.504 433.895 244.198 435.579 252.956C436.559 256.876 436.861 260.934 436.472 264.955C434.058 278.754 430.174 292.254 424.886 305.224C424.517 306.369 423.813 307.377 422.865 308.118C421.917 308.859 420.769 309.299 419.568 309.38C413.2 309.24 406.795 309.352 400.35 309.374L400.255 309.353Z" fill="black"/>
<path d="M408.506 239.541C403.764 238.928 400.004 238.218 396.103 237.956C389.569 237.399 383.042 236.902 376.471 236.597C355.908 235.546 335.346 233.877 314.747 234.318C300.547 234.586 286.432 234.474 272.103 234.074C259.222 233.787 246.321 233.11 233.403 232.042C221.759 231.372 210.087 231.397 198.447 232.117C190.228 232.378 182.089 232.817 173.871 233.078C172.094 233.059 170.321 232.925 168.561 232.678C165.839 232.422 163.138 232.071 160.566 231.77C159.443 231.696 157.568 231.232 157.562 233.03C157.556 234.828 159.284 234.439 160.564 234.529C171.582 236.137 182.756 236.366 193.829 235.211C211.843 234.464 229.885 234.725 247.871 235.993C268.43 237.322 289.174 237.394 309.816 237.382C325.452 237.218 341.064 237.429 356.722 238.41C370.973 239.366 385.205 240.344 399.419 241.345C401.954 241.278 405.308 242.277 408.506 239.541Z" fill="black"/>
<path d="M159.97 276.524C163.543 277.849 167.362 278.378 171.16 278.074C176.448 277.77 181.753 278.083 186.969 279.009C191.974 279.781 197.109 279.982 202.283 280.272C219.402 281.603 236.524 281.415 253.64 281.786C260.824 282.031 268.166 282.911 275.43 283.334C283.784 283.803 292.076 283.658 300.544 284.333C317.936 285.606 335.387 286.532 352.828 287.676C366.338 288.665 379.933 289.572 393.612 290.399C394.52 290.472 395.433 290.402 396.319 290.192C396.556 290.089 396.765 289.932 396.928 289.732C397.091 289.533 397.205 289.297 397.258 289.044C397.234 288.783 397.141 288.533 396.989 288.32C396.837 288.106 396.631 287.937 396.392 287.829C395.342 287.573 394.268 287.431 393.188 287.404C369.892 286.296 346.617 284.772 323.361 282.834C308.829 281.648 294.252 281.551 279.781 280.978C265.311 280.406 251.783 279.027 237.77 278.998C236.843 279.028 235.931 278.902 235.032 278.899C217.354 279.19 199.677 278.155 182.153 275.8C175.499 274.976 168.704 275.219 161.989 275.021C161.099 274.799 160.295 274.817 159.97 276.524Z" fill="black"/>
<path d="M57.6611 261.149C60.9803 262.091 64.356 262.821 67.7677 263.334C78.7119 264.289 89.2945 267.202 100.122 268.85C114.881 271.067 129.273 274.561 144.035 277.739C145.291 277.99 146.561 278.164 147.838 278.259C148.013 278.303 148.195 278.309 148.373 278.277C148.55 278.244 148.719 278.174 148.867 278.071C149.015 277.969 149.14 277.835 149.232 277.68C149.325 277.525 149.383 277.352 149.403 277.173C149.426 276.991 149.412 276.807 149.362 276.631C149.311 276.455 149.226 276.29 149.11 276.148C148.994 276.006 148.851 275.889 148.689 275.804C148.526 275.719 148.348 275.668 148.166 275.654C144.612 274.83 141.03 274.04 137.488 273.339C121.234 270.124 104.968 266.787 88.8119 263.934C79.7703 262.169 70.4403 261.239 61.23 259.957C60.583 259.799 59.9047 259.827 59.2732 260.038C58.6418 260.249 58.0829 260.634 57.6611 261.149Z" fill="black"/>
<path d="M59.8873 248.094C69.4017 250.246 141.079 239.878 148.63 235.128C140.994 235.514 133.403 236.54 125.939 238.195C118.721 239.162 111.515 240.252 104.309 241.342C97.1037 242.433 89.5543 243.805 82.1398 244.668C74.6449 245.236 67.2054 246.382 59.8873 248.094Z" fill="black"/>
</svg>
