<svg width="50" height="57" viewBox="0 0 50 57" fill="none" xmlns="http://www.w3.org/2000/svg">
<path d="M49.5798 14.25C49.1031 13.4318 48.0137 13.0909 47.1967 13.6364L40.7283 17.3864L41.6815 10.7045C41.8177 9.75 41.1368 8.86364 40.1836 8.72727C39.2304 8.59091 38.3452 9.27273 38.2091 10.2273L36.8473 19.6364L26.7022 25.5V13.7045L34.1919 7.84091C34.9408 7.22727 35.077 6.13636 34.4642 5.38636C33.8514 4.63636 32.762 4.5 32.0131 5.11364L26.7022 9.27273V1.77273C26.7022 0.818182 25.8851 0 24.9319 0C23.9787 0 23.1616 0.818182 23.1616 1.77273V9.27273L17.8508 5.11364C17.1018 4.5 16.0124 4.63636 15.3996 5.38636C14.7868 6.13636 14.923 7.22727 15.672 7.84091L23.1616 13.7045V25.5L13.0165 19.6364L11.6548 10.2273C11.5186 9.27273 10.6334 8.59091 9.68021 8.72727C8.72698 8.86364 8.0461 9.75 8.18227 10.7045L9.13551 17.3864L2.66715 13.6364C1.85009 13.1591 0.760688 13.4318 0.284072 14.25C-0.192544 15.0682 0.0798079 16.1591 0.896864 16.6364L7.36522 20.3864L1.10113 22.9091C0.215984 23.25 -0.260631 24.2727 0.147896 25.2273C0.420248 25.9091 1.10113 26.3182 1.78201 26.3182C1.98627 26.3182 2.19053 26.25 2.46289 26.1818L11.2462 22.6364L21.3913 28.5L11.2462 34.3636L2.46289 30.8182C1.57774 30.4773 0.556424 30.8864 0.147896 31.7727C-0.192543 32.6591 0.215984 33.6818 1.10113 34.0909L7.36522 36.6136L0.896864 40.3636C0.0798079 40.8409 -0.260632 41.9318 0.284072 42.75C0.624512 43.2955 1.16922 43.6364 1.78201 43.6364C2.05436 43.6364 2.3948 43.5682 2.66715 43.4318L9.13551 39.6818L8.18227 46.3636C8.0461 47.3182 8.72698 48.2045 9.68021 48.3409C9.7483 48.3409 9.81639 48.3409 9.95256 48.3409C10.8377 48.3409 11.5867 47.7273 11.7228 46.8409L13.0846 37.4318L23.2297 31.5682V43.2954L15.74 49.1591C14.9911 49.7727 14.8549 50.8636 15.4677 51.6136C16.0805 52.3636 17.1699 52.5 17.9189 51.8864L23.2297 47.7273V55.2273C23.2297 56.1818 24.0468 57 25 57C25.9532 57 26.7703 56.1818 26.7703 55.2273V47.7273L32.0812 51.8864C32.4216 52.1591 32.762 52.2955 33.1706 52.2955C33.7153 52.2955 34.1919 52.0909 34.5323 51.6136C35.1451 50.8636 35.0089 49.7727 34.26 49.1591L26.7703 43.2954V31.5682L36.9154 37.4318L38.2772 46.8409C38.4133 47.7273 39.1623 48.3409 40.0474 48.3409C40.1155 48.3409 40.1836 48.3409 40.3198 48.3409C41.273 48.2045 41.9539 47.3182 41.8177 46.3636L40.8645 39.6818L47.3329 43.4318C47.6052 43.5682 47.9456 43.6364 48.218 43.6364C48.8308 43.6364 49.4436 43.2955 49.7159 42.75C50.1925 41.9318 49.9202 40.8409 49.1031 40.3636L42.6348 36.6136L48.8989 34.0909C49.784 33.75 50.2606 32.7273 49.8521 31.7727C49.5117 30.8864 48.4903 30.4091 47.5371 30.8182L38.7538 34.3636L28.4725 28.5L38.6176 22.6364L47.4009 26.1818C47.6052 26.25 47.8095 26.3182 48.0818 26.3182C48.7627 26.3182 49.4436 25.9091 49.7159 25.2273C50.0564 24.3409 49.6478 23.3182 48.7627 22.9091L42.4986 20.3864L48.967 16.6364C49.784 16.1591 50.1245 15.0682 49.5798 14.25Z" fill="#FF00A8"/>
</svg>
