<svg width="498" height="72" viewBox="0 0 498 72" fill="none" xmlns="http://www.w3.org/2000/svg">
<path d="M13.98 55C12.6733 55 11.81 54.4167 11.39 53.25L0.47 20.49C-0.136667 17.97 0.54 16.71 2.5 16.71C3.76 16.71 4.64667 17.3867 5.16 18.74L14.12 46.04L22.38 18.81C22.5667 18.2033 22.87 17.7133 23.29 17.34C23.7567 16.92 24.34 16.71 25.04 16.71C26.3933 16.71 27.28 17.41 27.7 18.81L35.75 45.9L44.64 18.74C45.1067 17.3867 45.97 16.71 47.23 16.71C48.2567 16.71 48.9567 17.1067 49.33 17.9C49.7033 18.6467 49.7033 19.51 49.33 20.49L38.41 53.25C38.0367 54.4167 37.1967 55 35.89 55C35.2833 55 34.7233 54.8367 34.21 54.51C33.7433 54.1833 33.44 53.7633 33.3 53.25L24.9 25.39L16.5 53.25C16.08 54.4167 15.24 55 13.98 55ZM63.6964 71.66C63.3231 71.66 62.9031 71.5667 62.4364 71.38C60.8497 70.68 60.4064 69.56 61.1064 68.02L68.1064 52.69L68.0364 52.62L52.4264 20.28C52.0997 19.58 52.0531 18.9267 52.2864 18.32C52.5197 17.7133 52.9864 17.2467 53.6864 16.92C55.2264 16.22 56.3464 16.6167 57.0464 18.11L70.6964 46.88L83.7164 18.18C84.4164 16.6867 85.5364 16.2667 87.0764 16.92C88.6631 17.5733 89.1064 18.67 88.4064 20.21L65.7264 70.05C65.2597 71.1233 64.5831 71.66 63.6964 71.66ZM98.196 55C97.356 55 96.6793 54.7667 96.166 54.3C95.6993 53.7867 95.466 53.1333 95.466 52.34V19.44C95.466 18.6 95.6993 17.9467 96.166 17.48C96.6793 16.9667 97.356 16.71 98.196 16.71C98.9893 16.71 99.6193 16.9667 100.086 17.48C100.599 17.9467 100.856 18.6 100.856 19.44V21.82C102.349 20.0933 104.193 18.74 106.386 17.76C108.626 16.78 111.029 16.29 113.596 16.29C116.909 16.29 119.873 16.99 122.486 18.39C125.099 19.7433 127.153 21.75 128.646 24.41C130.186 27.07 130.956 30.3133 130.956 34.14V52.34C130.956 53.0867 130.699 53.7167 130.186 54.23C129.673 54.7433 129.043 55 128.296 55C127.503 55 126.849 54.7433 126.336 54.23C125.823 53.7167 125.566 53.0867 125.566 52.34V34.14C125.566 29.8 124.353 26.6033 121.926 24.55C119.546 22.45 116.583 21.4 113.036 21.4C110.749 21.4 108.673 21.8433 106.806 22.73C104.986 23.6167 103.539 24.83 102.466 26.37C101.393 27.91 100.856 29.66 100.856 31.62V52.34C100.856 53.1333 100.599 53.7867 100.086 54.3C99.6193 54.7667 98.9893 55 98.196 55ZM157.819 55C155.346 55 153.129 54.4167 151.169 53.25C149.256 52.0833 147.739 50.4967 146.619 48.49C145.499 46.4367 144.939 44.1033 144.939 41.49V22.8H140.389C139.689 22.8 139.106 22.59 138.639 22.17C138.172 21.7033 137.939 21.1433 137.939 20.49C137.939 19.79 138.172 19.23 138.639 18.81C139.106 18.3433 139.689 18.11 140.389 18.11H144.939V7.26C144.939 6.46666 145.172 5.81333 145.639 5.3C146.152 4.78667 146.806 4.53 147.599 4.53C148.392 4.53 149.046 4.78667 149.559 5.3C150.072 5.81333 150.329 6.46666 150.329 7.26V18.11H158.239C158.939 18.11 159.522 18.3433 159.989 18.81C160.456 19.23 160.689 19.79 160.689 20.49C160.689 21.1433 160.456 21.7033 159.989 22.17C159.522 22.59 158.939 22.8 158.239 22.8H150.329V41.49C150.329 43.87 151.029 45.83 152.429 47.37C153.829 48.8633 155.626 49.61 157.819 49.61H159.709C160.456 49.61 161.062 49.8667 161.529 50.38C161.996 50.8933 162.229 51.5467 162.229 52.34C162.229 53.1333 161.949 53.7867 161.389 54.3C160.829 54.7667 160.129 55 159.289 55H157.819ZM188.363 55.35C184.583 55.35 181.223 54.5333 178.283 52.9C175.39 51.22 173.103 48.91 171.423 45.97C169.79 43.03 168.973 39.67 168.973 35.89C168.973 32.0633 169.743 28.7033 171.283 25.81C172.87 22.87 175.04 20.56 177.793 18.88C180.546 17.2 183.72 16.36 187.313 16.36C190.86 16.36 193.94 17.1767 196.553 18.81C199.213 20.3967 201.266 22.6133 202.713 25.46C204.16 28.3067 204.883 31.55 204.883 35.19C204.883 35.9367 204.65 36.5433 204.183 37.01C203.716 37.43 203.11 37.64 202.363 37.64H174.083C174.363 40.16 175.133 42.4 176.393 44.36C177.653 46.2733 179.31 47.79 181.363 48.91C183.416 49.9833 185.75 50.52 188.363 50.52C190.043 50.52 191.723 50.24 193.403 49.68C195.13 49.0733 196.506 48.3267 197.533 47.44C198.046 47.02 198.63 46.81 199.283 46.81C199.936 46.7633 200.496 46.9267 200.963 47.3C201.57 47.86 201.873 48.4667 201.873 49.12C201.92 49.7733 201.663 50.3333 201.103 50.8C199.563 52.1067 197.603 53.2033 195.223 54.09C192.843 54.93 190.556 55.35 188.363 55.35ZM187.313 21.19C183.72 21.19 180.756 22.31 178.423 24.55C176.09 26.7433 174.69 29.6133 174.223 33.16H199.843C199.47 29.6133 198.163 26.7433 195.923 24.55C193.73 22.31 190.86 21.19 187.313 21.19ZM216.661 55C214.888 55 214.001 54.1133 214.001 52.34V19.37C214.001 17.5967 214.888 16.71 216.661 16.71C218.435 16.71 219.321 17.5967 219.321 19.37V22.38C220.721 20.5133 222.448 19.0433 224.501 17.97C226.555 16.85 228.818 16.29 231.291 16.29C233.438 16.29 235.095 16.5933 236.261 17.2C237.428 17.8067 237.871 18.6933 237.591 19.86C237.358 20.9333 236.798 21.4933 235.911 21.54C235.071 21.54 234.068 21.4933 232.901 21.4C230.288 21.1667 227.955 21.4467 225.901 22.24C223.895 22.9867 222.285 24.1533 221.071 25.74C219.905 27.3267 219.321 29.2167 219.321 31.41V52.34C219.321 54.1133 218.435 55 216.661 55Z" fill="#FF00A8"/>
<path d="M283.44 55.35C279.753 55.35 276.486 54.5333 273.64 52.9C270.793 51.22 268.553 48.91 266.92 45.97C265.333 43.03 264.54 39.67 264.54 35.89C264.54 32.0633 265.38 28.68 267.06 25.74C268.74 22.8 271.05 20.5133 273.99 18.88C276.93 17.2 280.266 16.36 284 16.36C287.78 16.36 291.116 17.2 294.01 18.88C296.95 20.5133 299.236 22.8 300.87 25.74C302.55 28.68 303.413 32.0633 303.46 35.89V50.17C303.46 53.95 302.62 57.3333 300.94 60.32C299.26 63.3533 296.973 65.7333 294.08 67.46C291.186 69.2333 287.873 70.12 284.14 70.12C280.453 70.12 277.21 69.42 274.41 68.02C271.61 66.6667 269.3 64.8 267.48 62.42C266.966 61.86 266.733 61.2533 266.78 60.6C266.873 59.9467 267.223 59.41 267.83 58.99C268.436 58.57 269.113 58.43 269.86 58.57C270.606 58.71 271.19 59.06 271.61 59.62C272.963 61.3 274.69 62.6533 276.79 63.68C278.936 64.7067 281.41 65.22 284.21 65.22C286.823 65.22 289.18 64.59 291.28 63.33C293.38 62.07 295.036 60.2967 296.25 58.01C297.51 55.7233 298.14 53.04 298.14 49.96V46.74C296.74 49.4 294.756 51.5 292.19 53.04C289.67 54.58 286.753 55.35 283.44 55.35ZM284 50.45C286.753 50.45 289.18 49.8433 291.28 48.63C293.426 47.37 295.106 45.6433 296.32 43.45C297.533 41.2567 298.14 38.7367 298.14 35.89C298.14 33.0433 297.533 30.5233 296.32 28.33C295.106 26.09 293.426 24.3633 291.28 23.15C289.18 21.89 286.753 21.26 284 21.26C281.246 21.26 278.796 21.89 276.65 23.15C274.503 24.3633 272.823 26.09 271.61 28.33C270.396 30.5233 269.79 33.0433 269.79 35.89C269.79 38.7367 270.396 41.2567 271.61 43.45C272.823 45.6433 274.503 47.37 276.65 48.63C278.796 49.8433 281.246 50.45 284 50.45ZM317.793 55C316.953 55 316.276 54.7667 315.763 54.3C315.296 53.7867 315.063 53.11 315.063 52.27V19.44C315.063 18.6 315.296 17.9467 315.763 17.48C316.276 16.9667 316.953 16.71 317.793 16.71C318.586 16.71 319.216 16.9667 319.683 17.48C320.196 17.9467 320.453 18.6 320.453 19.44V52.27C320.453 53.11 320.196 53.7867 319.683 54.3C319.216 54.7667 318.586 55 317.793 55ZM317.723 9.43C316.696 9.43 315.809 9.05666 315.063 8.31C314.316 7.56333 313.943 6.65333 313.943 5.58C313.943 4.41333 314.316 3.50333 315.063 2.85C315.856 2.15 316.766 1.8 317.793 1.8C318.773 1.8 319.636 2.15 320.383 2.85C321.176 3.50333 321.573 4.41333 321.573 5.58C321.573 6.65333 321.199 7.56333 320.453 8.31C319.706 9.05666 318.796 9.43 317.723 9.43ZM342.437 55C339.637 55 337.327 53.88 335.507 51.64C333.687 49.3533 332.777 46.4367 332.777 42.89V2.99C332.777 2.19666 333.01 1.56666 333.477 1.1C333.99 0.586665 334.644 0.329999 335.437 0.329999C336.23 0.329999 336.86 0.586665 337.327 1.1C337.84 1.56666 338.097 2.19666 338.097 2.99V42.89C338.097 44.8967 338.494 46.53 339.287 47.79C340.127 49.05 341.177 49.68 342.437 49.68H344.187C344.887 49.68 345.447 49.9367 345.867 50.45C346.287 50.9167 346.497 51.5467 346.497 52.34C346.497 53.1333 346.194 53.7867 345.587 54.3C345.027 54.7667 344.28 55 343.347 55H342.437ZM373.323 55.35C369.683 55.35 366.393 54.51 363.453 52.83C360.559 51.15 358.249 48.8633 356.523 45.97C354.843 43.03 353.979 39.74 353.933 36.1V3.06C353.933 2.22 354.166 1.56666 354.633 1.1C355.146 0.586665 355.823 0.329999 356.663 0.329999C357.456 0.329999 358.086 0.586665 358.553 1.1C359.066 1.56666 359.323 2.22 359.323 3.06V23.64C360.863 21.4467 362.893 19.6967 365.413 18.39C367.979 17.0367 370.826 16.36 373.953 16.36C377.546 16.36 380.766 17.2233 383.613 18.95C386.459 20.63 388.699 22.94 390.333 25.88C392.013 28.82 392.853 32.1333 392.853 35.82C392.853 39.5533 391.989 42.89 390.263 45.83C388.583 48.77 386.273 51.1033 383.333 52.83C380.393 54.51 377.056 55.35 373.323 55.35ZM373.323 50.45C376.029 50.45 378.456 49.82 380.603 48.56C382.749 47.2533 384.429 45.5033 385.643 43.31C386.903 41.1167 387.533 38.62 387.533 35.82C387.533 33.0667 386.903 30.5933 385.643 28.4C384.429 26.16 382.749 24.41 380.603 23.15C378.456 21.89 376.029 21.26 373.323 21.26C370.663 21.26 368.259 21.89 366.113 23.15C363.966 24.41 362.286 26.16 361.073 28.4C359.859 30.5933 359.253 33.0667 359.253 35.82C359.253 38.62 359.859 41.1167 361.073 43.31C362.286 45.5033 363.966 47.2533 366.113 48.56C368.259 49.82 370.663 50.45 373.323 50.45ZM420.785 55.35C417.005 55.35 413.645 54.5333 410.705 52.9C407.812 51.22 405.525 48.91 403.845 45.97C402.212 43.03 401.395 39.67 401.395 35.89C401.395 32.0633 402.165 28.7033 403.705 25.81C405.292 22.87 407.462 20.56 410.215 18.88C412.968 17.2 416.142 16.36 419.735 16.36C423.282 16.36 426.362 17.1767 428.975 18.81C431.635 20.3967 433.688 22.6133 435.135 25.46C436.582 28.3067 437.305 31.55 437.305 35.19C437.305 35.9367 437.072 36.5433 436.605 37.01C436.138 37.43 435.532 37.64 434.785 37.64H406.505C406.785 40.16 407.555 42.4 408.815 44.36C410.075 46.2733 411.732 47.79 413.785 48.91C415.838 49.9833 418.172 50.52 420.785 50.52C422.465 50.52 424.145 50.24 425.825 49.68C427.552 49.0733 428.928 48.3267 429.955 47.44C430.468 47.02 431.052 46.81 431.705 46.81C432.358 46.7633 432.918 46.9267 433.385 47.3C433.992 47.86 434.295 48.4667 434.295 49.12C434.342 49.7733 434.085 50.3333 433.525 50.8C431.985 52.1067 430.025 53.2033 427.645 54.09C425.265 54.93 422.978 55.35 420.785 55.35ZM419.735 21.19C416.142 21.19 413.178 22.31 410.845 24.55C408.512 26.7433 407.112 29.6133 406.645 33.16H432.265C431.892 29.6133 430.585 26.7433 428.345 24.55C426.152 22.31 423.282 21.19 419.735 21.19ZM449.083 55C447.31 55 446.423 54.1133 446.423 52.34V19.37C446.423 17.5967 447.31 16.71 449.083 16.71C450.856 16.71 451.743 17.5967 451.743 19.37V22.38C453.143 20.5133 454.87 19.0433 456.923 17.97C458.976 16.85 461.24 16.29 463.713 16.29C465.86 16.29 467.516 16.5933 468.683 17.2C469.85 17.8067 470.293 18.6933 470.013 19.86C469.78 20.9333 469.22 21.4933 468.333 21.54C467.493 21.54 466.49 21.4933 465.323 21.4C462.71 21.1667 460.376 21.4467 458.323 22.24C456.316 22.9867 454.706 24.1533 453.493 25.74C452.326 27.3267 451.743 29.2167 451.743 31.41V52.34C451.743 54.1133 450.856 55 449.083 55ZM493.464 55C490.99 55 488.774 54.4167 486.814 53.25C484.9 52.0833 483.384 50.4967 482.264 48.49C481.144 46.4367 480.584 44.1033 480.584 41.49V22.8H476.034C475.334 22.8 474.75 22.59 474.284 22.17C473.817 21.7033 473.584 21.1433 473.584 20.49C473.584 19.79 473.817 19.23 474.284 18.81C474.75 18.3433 475.334 18.11 476.034 18.11H480.584V7.26C480.584 6.46666 480.817 5.81333 481.284 5.3C481.797 4.78667 482.45 4.53 483.244 4.53C484.037 4.53 484.69 4.78667 485.204 5.3C485.717 5.81333 485.974 6.46666 485.974 7.26V18.11H493.884C494.584 18.11 495.167 18.3433 495.634 18.81C496.1 19.23 496.334 19.79 496.334 20.49C496.334 21.1433 496.1 21.7033 495.634 22.17C495.167 22.59 494.584 22.8 493.884 22.8H485.974V41.49C485.974 43.87 486.674 45.83 488.074 47.37C489.474 48.8633 491.27 49.61 493.464 49.61H495.354C496.1 49.61 496.707 49.8667 497.174 50.38C497.64 50.8933 497.874 51.5467 497.874 52.34C497.874 53.1333 497.594 53.7867 497.034 54.3C496.474 54.7667 495.774 55 494.934 55H493.464Z" fill="black"/>
</svg>
